<svg xmlns="http://www.w3.org/2000/svg" width="24" height="25" viewBox="0 0 24 25" fill="none">
  <path d="M13.5 22.4505C18.311 21.7265 22 17.5755 22 12.5625C22 7.0395 17.523 2.5625 12 2.5625C6.477 2.5625 2 7.0395 2 12.5625C2 17.5755 5.689 21.7275 10.5 22.4505V15.5625H9C8.60218 15.5625 8.22064 15.4045 7.93934 15.1232C7.65804 14.8419 7.5 14.4603 7.5 14.0625C7.5 13.6647 7.65804 13.2831 7.93934 13.0018C8.22064 12.7205 8.60218 12.5625 9 12.5625H10.5V10.5625C10.5 9.63424 10.8687 8.744 11.5251 8.08763C12.1815 7.43125 13.0717 7.0625 14 7.0625H14.5C14.8978 7.0625 15.2794 7.22054 15.5607 7.50184C15.842 7.78314 16 8.16468 16 8.5625C16 8.96032 15.842 9.34186 15.5607 9.62316C15.2794 9.90446 14.8978 10.0625 14.5 10.0625H14C13.8674 10.0625 13.7402 10.1152 13.6464 10.2089C13.5527 10.3027 13.5 10.4299 13.5 10.5625V12.5625H15C15.3978 12.5625 15.7794 12.7205 16.0607 13.0018C16.342 13.2831 16.5 13.6647 16.5 14.0625C16.5 14.4603 16.342 14.8419 16.0607 15.1232C15.7794 15.4045 15.3978 15.5625 15 15.5625H13.5V22.4505Z" fill="#333333"/>
</svg>