<svg xmlns="http://www.w3.org/2000/svg" width="24" height="25" viewBox="0 0 24 25" fill="none">
  <path fill-rule="evenodd" clip-rule="evenodd" d="M14 3.5625C14.2652 3.5625 14.5196 3.66786 14.7071 3.85539C14.8946 4.04293 15 4.29728 15 4.5625C15.0006 5.48442 15.3193 6.37791 15.9023 7.09209C16.4853 7.80627 17.2969 8.29738 18.2 8.4825C18.4599 8.53554 18.6881 8.68966 18.8344 8.91096C18.9807 9.13225 19.033 9.40259 18.98 9.6625C18.927 9.92241 18.7728 10.1506 18.5515 10.2969C18.3303 10.4432 18.0599 10.4955 17.8 10.4425C16.7582 10.2289 15.7919 9.74234 15 9.0325V17.5625C15 18.5514 14.7068 19.5181 14.1573 20.3404C13.6079 21.1626 12.827 21.8035 11.9134 22.1819C10.9998 22.5603 9.99446 22.6594 9.02455 22.4664C8.05465 22.2735 7.16373 21.7973 6.46447 21.098C5.76521 20.3988 5.289 19.5079 5.09608 18.538C4.90315 17.568 5.00217 16.5627 5.3806 15.6491C5.75904 14.7355 6.39991 13.9546 7.22215 13.4052C8.0444 12.8557 9.0111 12.5625 10 12.5625C10.2652 12.5625 10.5196 12.6679 10.7071 12.8554C10.8946 13.0429 11 13.2973 11 13.5625C11 13.8277 10.8946 14.0821 10.7071 14.2696C10.5196 14.4571 10.2652 14.5625 10 14.5625C9.40666 14.5625 8.82664 14.7384 8.33329 15.0681C7.83994 15.3977 7.45543 15.8663 7.22836 16.4144C7.0013 16.9626 6.94189 17.5658 7.05765 18.1478C7.1734 18.7297 7.45912 19.2643 7.87868 19.6838C8.29824 20.1034 8.83279 20.3891 9.41473 20.5049C9.99667 20.6206 10.5999 20.5612 11.1481 20.3341C11.6962 20.1071 12.1648 19.7226 12.4944 19.2292C12.8241 18.7359 13 18.1558 13 17.5625V4.5625C13 4.29728 13.1054 4.04293 13.2929 3.85539C13.4804 3.66786 13.7348 3.5625 14 3.5625Z" fill="#333333"/>
</svg>