<svg xmlns="http://www.w3.org/2000/svg" width="24" height="25" viewBox="0 0 24 25" fill="none">
  <path d="M16.8181 21.3305L3.75111 4.5305C3.68223 4.44181 3.63963 4.33557 3.62815 4.22387C3.61666 4.11217 3.63675 3.99948 3.68614 3.89863C3.73552 3.79778 3.81221 3.71282 3.90749 3.65339C4.00277 3.59397 4.11281 3.56248 4.22511 3.5625H6.70511C6.7964 3.56264 6.88646 3.5836 6.96843 3.62381C7.0504 3.66401 7.12211 3.72239 7.17811 3.7945L20.2451 20.5945C20.314 20.6832 20.3566 20.7894 20.3681 20.9011C20.3796 21.0128 20.3595 21.1255 20.3101 21.2264C20.2607 21.3272 20.184 21.4122 20.0887 21.4716C19.9934 21.531 19.8834 21.5625 19.7711 21.5625H17.2911C17.1998 21.5624 17.1097 21.5414 17.0278 21.5012C16.9458 21.461 16.8741 21.4026 16.8181 21.3305Z" stroke="#333333" stroke-width="1.5"/>
  <path d="M20 3.5625L4 21.5625" stroke="#333333" stroke-width="1.5" stroke-linecap="round"/>
</svg>