<svg xmlns="http://www.w3.org/2000/svg" width="25" height="24" viewBox="0 0 25 24" fill="none">
  <path d="M24.3242 12C24.3242 5.37262 18.9516 0 12.3242 0C5.69684 0 0.324219 5.37262 0.324219 12C0.324219 17.9895 4.71247 22.954 10.4492 23.8542V15.4688H7.40234V12H10.4492V9.35625C10.4492 6.34875 12.2408 4.6875 14.9818 4.6875C16.2947 4.6875 17.668 4.92188 17.668 4.92188V7.875H16.1548C14.6641 7.875 14.1992 8.80003 14.1992 9.74906V12H17.5273L16.9953 15.4688H14.1992V23.8542C19.936 22.954 24.3242 17.9896 24.3242 12Z" fill="#1877F2"/>
  <path d="M16.9953 15.4688L17.5273 12H14.1992V9.74906C14.1992 8.79994 14.6641 7.875 16.1548 7.875H17.668V4.92188C17.668 4.92188 16.2947 4.6875 14.9818 4.6875C12.2408 4.6875 10.4492 6.34875 10.4492 9.35625V12H7.40234V15.4688H10.4492V23.8542C11.0695 23.9514 11.6964 24.0001 12.3242 24C12.9521 24.0001 13.579 23.9514 14.1992 23.8542V15.4688H16.9953Z" fill="white"/>
</svg>