<svg xmlns="http://www.w3.org/2000/svg" width="33" height="24" viewBox="0 0 33 24" fill="none">
  <path d="M7.7214 23.8822V11.5825L3.90689 8.09279L0.486328 6.15625V21.7116C0.486328 22.9126 1.45939 23.8822 2.6569 23.8822H7.7214Z" fill="#4285F4"/>
  <path d="M25.0859 23.8821H30.1504C31.3516 23.8821 32.321 22.9089 32.321 21.7115V6.15625L28.4467 8.37432L25.0859 11.5824V23.8821Z" fill="#34A853"/>
  <path d="M7.72217 11.5813L7.20312 6.77545L7.72217 2.17578L16.4042 8.68737L25.0862 2.17578L25.6668 6.52712L25.0862 11.5813L16.4042 18.0929L7.72217 11.5813Z" fill="#EA4335"/>
  <path d="M25.0859 2.17662V11.5821L32.321 6.1559V3.26185C32.321 0.577703 29.257 -0.952453 27.1119 0.657288L25.0859 2.17662Z" fill="#FBBC04"/>
  <path d="M0.486328 6.15596L3.81387 8.65171L7.7214 11.5822V2.17668L5.69545 0.657345C3.54664 -0.95252 0.486328 0.577759 0.486328 3.26178V6.15596Z" fill="#C5221F"/>
</svg>