<svg xmlns="http://www.w3.org/2000/svg" width="25" height="24" viewBox="0 0 25 24" fill="none">
  <path d="M18.6992 0H5.94922C2.84262 0 0.324219 2.5184 0.324219 5.625V18.375C0.324219 21.4816 2.84262 24 5.94922 24H18.6992C21.8058 24 24.3242 21.4816 24.3242 18.375V5.625C24.3242 2.5184 21.8058 0 18.6992 0Z" fill="url(#paint0_radial_1433_11145)"/>
  <path d="M18.6992 0H5.94922C2.84262 0 0.324219 2.5184 0.324219 5.625V18.375C0.324219 21.4816 2.84262 24 5.94922 24H18.6992C21.8058 24 24.3242 21.4816 24.3242 18.375V5.625C24.3242 2.5184 21.8058 0 18.6992 0Z" fill="url(#paint1_radial_1433_11145)"/>
  <path d="M12.3251 2.625C9.779 2.625 9.45941 2.63616 8.45947 2.68163C7.46141 2.72738 6.78013 2.88534 6.18406 3.11719C5.56738 3.35662 5.04434 3.67697 4.52328 4.19822C4.00175 4.71937 3.68141 5.24241 3.44122 5.85881C3.20872 6.45506 3.05056 7.13662 3.00566 8.13422C2.96094 9.13425 2.94922 9.45394 2.94922 12.0001C2.94922 14.5463 2.96047 14.8648 3.00584 15.8647C3.05178 16.8628 3.20975 17.5441 3.44141 18.1402C3.68103 18.7568 4.00138 19.2799 4.52263 19.8009C5.04359 20.3225 5.56663 20.6436 6.18284 20.883C6.77938 21.1148 7.46075 21.2728 8.45862 21.3186C9.45866 21.364 9.77797 21.3752 12.3239 21.3752C14.8703 21.3752 15.1888 21.364 16.1888 21.3186C17.1868 21.2728 17.8689 21.1148 18.4654 20.883C19.0818 20.6436 19.6041 20.3225 20.125 19.8009C20.6465 19.2799 20.9667 18.7568 21.207 18.1404C21.4375 17.5441 21.5957 16.8626 21.6426 15.8649C21.6875 14.865 21.6992 14.5463 21.6992 12.0001C21.6992 9.45394 21.6875 9.13444 21.6426 8.13441C21.5957 7.13634 21.4375 6.45516 21.207 5.85909C20.9667 5.24241 20.6465 4.71937 20.125 4.19822C19.6035 3.67678 19.082 3.35644 18.4648 3.11728C17.8672 2.88534 17.1855 2.72728 16.1875 2.68163C15.1874 2.63616 14.8691 2.625 12.3222 2.625H12.3251ZM11.484 4.31447C11.7337 4.31409 12.0122 4.31447 12.3251 4.31447C14.8283 4.31447 15.1249 4.32347 16.1134 4.36838C17.0275 4.41019 17.5236 4.56291 17.8541 4.69125C18.2916 4.86112 18.6035 5.06428 18.9314 5.3925C19.2596 5.72062 19.4626 6.03309 19.633 6.47062C19.7613 6.80062 19.9142 7.29675 19.9558 8.21081C20.0008 9.19913 20.0105 9.49594 20.0105 11.9979C20.0105 14.4999 20.0008 14.7968 19.9558 15.7851C19.914 16.6991 19.7613 17.1952 19.633 17.5253C19.4631 17.9629 19.2596 18.2744 18.9314 18.6023C18.6033 18.9305 18.2918 19.1335 17.8541 19.3035C17.524 19.4324 17.0275 19.5848 16.1134 19.6266C15.1251 19.6715 14.8283 19.6812 12.3251 19.6812C9.82175 19.6812 9.52503 19.6715 8.53681 19.6266C7.62275 19.5844 7.12663 19.4317 6.79587 19.3033C6.35844 19.1333 6.04587 18.9303 5.71775 18.6022C5.38962 18.274 5.18656 17.9623 5.01622 17.5246C4.88788 17.1945 4.73497 16.6984 4.69334 15.7843C4.64844 14.796 4.63944 14.4992 4.63944 11.9956C4.63944 9.492 4.64844 9.19678 4.69334 8.20847C4.73516 7.29441 4.88788 6.79828 5.01622 6.46781C5.18619 6.03028 5.38963 5.71781 5.71784 5.38969C6.04606 5.06156 6.35844 4.85841 6.79597 4.68816C7.12644 4.55925 7.62275 4.40691 8.53681 4.36491C9.40166 4.32581 9.73681 4.31409 11.484 4.31212V4.31447ZM17.3294 5.87109C16.7083 5.87109 16.2044 6.37453 16.2044 6.99572C16.2044 7.61681 16.7083 8.12072 17.3294 8.12072C17.9505 8.12072 18.4544 7.61681 18.4544 6.99572C18.4544 6.37463 17.9505 5.87072 17.3294 5.87072V5.87109ZM12.3251 7.18556C9.66631 7.18556 7.51062 9.34125 7.51062 12.0001C7.51062 14.6589 9.66631 16.8136 12.3251 16.8136C14.9839 16.8136 17.1388 14.6589 17.1388 12.0001C17.1388 9.34134 14.9837 7.18556 12.3249 7.18556H12.3251ZM12.3251 8.87503C14.0509 8.87503 15.4501 10.2741 15.4501 12.0001C15.4501 13.7259 14.0509 15.1252 12.3251 15.1252C10.5992 15.1252 9.20009 13.7259 9.20009 12.0001C9.20009 10.2741 10.5991 8.87503 12.3251 8.87503Z" fill="white"/>
  <defs>
    <radialGradient id="paint0_radial_1433_11145" cx="0" cy="0" r="1" gradientUnits="userSpaceOnUse" gradientTransform="translate(6.69922 25.8485) rotate(-90) scale(23.7858 22.1227)">
      <stop stop-color="#FFDD55"/>
      <stop offset="0.1" stop-color="#FFDD55"/>
      <stop offset="0.5" stop-color="#FF543E"/>
      <stop offset="1" stop-color="#C837AB"/>
    </radialGradient>
    <radialGradient id="paint1_radial_1433_11145" cx="0" cy="0" r="1" gradientUnits="userSpaceOnUse" gradientTransform="translate(-3.69587 1.72884) rotate(78.681) scale(10.6324 43.827)">
      <stop stop-color="#3771C8"/>
      <stop offset="0.128" stop-color="#3771C8"/>
      <stop offset="1" stop-color="#6600FF" stop-opacity="0"/>
    </radialGradient>
  </defs>
</svg>