<svg xmlns="http://www.w3.org/2000/svg" width="22" height="24" viewBox="0 0 22 24" fill="none">
  <path d="M16.0267 8.64117C17.5725 9.74558 19.4662 10.3954 21.5114 10.3954V6.46189C21.1243 6.46204 20.7382 6.42165 20.3596 6.34139V9.43764C18.3145 9.43764 16.4211 8.7879 14.875 7.68357V15.7108C14.875 19.7265 11.6179 22.9816 7.60049 22.9816C6.10148 22.9816 4.70816 22.5286 3.55078 21.7518C4.87177 23.1018 6.71398 23.9393 8.752 23.9393C12.7698 23.9393 16.0269 20.6842 16.0269 16.6683V8.64117H16.0267ZM17.4477 4.67273C16.6577 3.81013 16.1389 2.69538 16.0267 1.46293V0.957031H14.9352C15.21 2.5234 16.1472 3.86161 17.4477 4.67273ZM6.0918 18.6704C5.6504 18.092 5.41181 17.3844 5.41293 16.6568C5.41293 14.8203 6.90267 13.3311 8.74066 13.3311C9.08313 13.3309 9.42359 13.3835 9.75006 13.4869V9.46544C9.36855 9.41322 8.98355 9.39096 8.59873 9.39916V12.5293C8.27209 12.4258 7.93146 12.3732 7.58882 12.3735C5.75092 12.3735 4.26126 13.8625 4.26126 15.6993C4.26126 16.9981 5.00584 18.1226 6.0918 18.6704Z" fill="#FF004F"/>
  <path d="M14.876 7.68349C16.4222 8.78782 18.3154 9.43756 20.3606 9.43756V6.34131C19.219 6.09824 18.2084 5.50205 17.4486 4.67273C16.1481 3.86153 15.211 2.52332 14.9362 0.957031H12.0692V16.6682C12.0627 18.4998 10.5755 19.9828 8.7415 19.9828C7.66083 19.9828 6.70067 19.468 6.09264 18.6703C5.00685 18.1226 4.26218 16.9981 4.26218 15.6994C4.26218 13.8627 5.75184 12.3736 7.58974 12.3736C7.94188 12.3736 8.28127 12.4284 8.59965 12.5293V9.39924C4.65272 9.48076 1.47852 12.704 1.47852 16.6683C1.47852 18.6472 2.26894 20.4411 3.55187 21.752C4.70925 22.5286 6.10249 22.9817 7.60158 22.9817C11.6191 22.9817 14.8761 19.7264 14.8761 15.7108L14.876 7.68349Z" fill="black"/>
  <path d="M20.36 6.34179V5.50477C19.3305 5.50627 18.3215 5.21813 17.448 4.6733C18.2212 5.51927 19.2392 6.10265 20.36 6.34196M14.9356 0.957517C14.9094 0.807854 14.8893 0.657193 14.8753 0.505903V0H10.9166V15.7113C10.9103 17.5428 9.42317 19.0258 7.58907 19.0258C7.06912 19.0266 6.55627 18.905 6.09196 18.671C6.69999 19.4686 7.66016 19.9833 8.74082 19.9833C10.5748 19.9833 12.0621 18.5004 12.0685 16.6688V0.9576L14.9356 0.957517ZM8.59922 9.39972V8.5085C8.26842 8.46333 7.93494 8.44072 7.60107 8.4408C3.58314 8.4408 0.326172 11.696 0.326172 15.7113C0.326172 18.2287 1.6062 20.4473 3.55136 21.7524C2.26843 20.4416 1.47801 18.6476 1.47801 16.6687C1.47801 12.7046 4.65213 9.48124 8.59922 9.39972Z" fill="#00F2EA"/>
</svg>