<svg xmlns="http://www.w3.org/2000/svg" width="75" height="16" viewBox="0 0 75 16" fill="none">
  <path d="M58.2681 11.9097H59.8969V0.898144H58.2681V11.9097ZM72.9388 4.86461L71.0717 9.63882H71.0158L69.078 4.86461H67.3235L70.2293 11.5371L68.5734 15.249H70.2712L74.75 4.86461H72.9388ZM63.7019 10.6588C63.1676 10.6588 62.4239 10.3902 62.4239 9.72338C62.4239 8.87424 63.3501 8.54833 64.1505 8.54833C64.8663 8.54833 65.2041 8.70424 65.6388 8.91652C65.5122 9.93655 64.642 10.6588 63.7019 10.6588ZM63.8983 4.62414C62.719 4.62414 61.4969 5.14825 60.9924 6.31009L62.4379 6.91876C62.7469 6.31009 63.3221 6.11102 63.9262 6.11102C64.7685 6.11102 65.6248 6.62103 65.6388 7.5283V7.64105C65.3438 7.47105 64.7127 7.21648 63.9402 7.21648C62.382 7.21648 60.7951 8.0806 60.7951 9.6952C60.7951 11.1689 62.073 12.1184 63.5046 12.1184C64.6001 12.1184 65.2041 11.6225 65.5829 11.0411H65.6388V11.8912H67.2109V7.66924C67.2109 5.71463 65.7654 4.62414 63.8983 4.62414ZM53.8321 6.20527H51.5155V2.43082H53.8321C55.0498 2.43082 55.7411 3.4482 55.7411 4.31761C55.7411 5.17115 55.0498 6.20527 53.8321 6.20527ZM53.7902 0.898144H49.8875V11.9097H51.5155V7.73795H53.7902C55.5953 7.73795 57.3699 6.41843 57.3699 4.31761C57.3699 2.21678 55.5953 0.898144 53.7902 0.898144ZM32.5083 10.6606C31.3832 10.6606 30.4413 9.71017 30.4413 8.40475C30.4413 7.08524 31.3832 6.11982 32.5083 6.11982C33.6195 6.11982 34.4906 7.08524 34.4906 8.40475C34.4906 9.71017 33.6195 10.6606 32.5083 10.6606ZM34.3789 5.48121H34.3222C33.9564 5.04166 33.2538 4.6444 32.3678 4.6444C30.5111 4.6444 28.8099 6.28983 28.8099 8.40475C28.8099 10.5047 30.5111 12.1369 32.3678 12.1369C33.2538 12.1369 33.9564 11.7396 34.3222 11.2851H34.3789V11.8251C34.3789 13.2582 33.6195 14.0246 32.3957 14.0246C31.3971 14.0246 30.7782 13.3005 30.5251 12.6901L29.1049 13.2864C29.5126 14.28 30.5958 15.5 32.3957 15.5C34.3082 15.5 35.9257 14.3646 35.9257 11.5978V4.87078H34.3789V5.48121ZM37.0508 11.9097H38.6823V0.897264H37.0508V11.9097ZM41.0862 8.27703C41.0443 6.82979 42.1974 6.09164 43.0266 6.09164C43.6743 6.09164 44.2225 6.41755 44.4049 6.88616L41.0862 8.27703ZM46.1489 7.02798C45.8399 6.19117 44.8972 4.6444 42.9708 4.6444C41.0583 4.6444 39.4696 6.1621 39.4696 8.39066C39.4696 10.4906 41.0443 12.1369 43.1532 12.1369C44.8553 12.1369 45.8399 11.0869 46.2476 10.4765L44.9819 9.62473C44.5603 10.2493 43.9833 10.6606 43.1532 10.6606C42.3239 10.6606 41.733 10.2774 41.3533 9.52607L46.3174 7.45343L46.1489 7.02798ZM6.6001 5.79391V7.38296H10.3684C10.2558 8.27703 9.96072 8.92974 9.51118 9.38337C8.96214 9.93743 8.10409 10.5479 6.6001 10.5479C4.27909 10.5479 2.46523 8.6602 2.46523 6.3189C2.46523 3.97672 4.27909 2.08993 6.6001 2.08993C7.85182 2.08993 8.76574 2.58673 9.44048 3.22535L10.5517 2.10403C9.60895 1.19587 8.3581 0.5 6.6001 0.5C3.42191 0.5 0.75 3.11172 0.75 6.3189C0.75 9.52607 3.42191 12.1369 6.6001 12.1369C8.31533 12.1369 9.60895 11.5688 10.6215 10.5047C11.6629 9.45472 11.9858 7.9793 11.9858 6.78663C11.9858 6.41755 11.9579 6.07754 11.9012 5.79391H6.6001ZM16.2708 10.6606C15.1457 10.6606 14.175 9.72426 14.175 8.39066C14.175 7.04207 15.1457 6.11982 16.2708 6.11982C17.3951 6.11982 18.3658 7.04207 18.3658 8.39066C18.3658 9.72426 17.3951 10.6606 16.2708 10.6606ZM16.2708 4.6444C14.2169 4.6444 12.5436 6.21936 12.5436 8.39066C12.5436 10.5479 14.2169 12.1369 16.2708 12.1369C18.3239 12.1369 19.9972 10.5479 19.9972 8.39066C19.9972 6.21936 18.3239 4.6444 16.2708 4.6444ZM24.4 10.6606C23.2749 10.6606 22.3042 9.72426 22.3042 8.39066C22.3042 7.04207 23.2749 6.11982 24.4 6.11982C25.5252 6.11982 26.495 7.04207 26.495 8.39066C26.495 9.72426 25.5252 10.6606 24.4 10.6606ZM24.4 4.6444C22.347 4.6444 20.6737 6.21936 20.6737 8.39066C20.6737 10.5479 22.347 12.1369 24.4 12.1369C26.4531 12.1369 28.1264 10.5479 28.1264 8.39066C28.1264 6.21936 26.4531 4.6444 24.4 4.6444Z" fill="black"/>
</svg>