<svg width="147" height="160" viewBox="0 0 147 160" fill="none" xmlns="http://www.w3.org/2000/svg">
<g id="Rental 1" clip-path="url(#clip0_309_453)">
<g id="Layer_x0020_1">
<g id="_105553233400160">
<g id="Group">
<g id="Group_2">
<g id="Group_3">
<path id="Vector" d="M48.25 26.666C48.25 20.7823 43.4658 16 37.5841 16C31.7024 16 26.9181 20.7842 26.9181 26.666C26.9181 32.5497 31.7024 37.3319 37.5841 37.3319C43.4658 37.3319 48.25 32.5477 48.25 26.666ZM37.5841 31.9979C34.6422 31.9979 32.2501 29.6058 32.2501 26.664C32.2501 23.7221 34.6422 21.33 37.5841 21.33C40.5259 21.33 42.9181 23.7221 42.9181 26.664C42.9181 29.6058 40.5259 31.9979 37.5841 31.9979Z" fill="white"/>
<path id="Vector_2" d="M146.897 106.162C146.739 103.519 145.574 100.985 143.616 99.0311L101.763 57.1779C105.131 51.587 106.916 45.2352 106.916 38.6663C106.916 18.8163 90.7665 2.66699 70.9165 2.66699C66.1302 2.66699 61.4754 3.66088 57.0397 5.53116C51.3652 2.04555 44.7166 0 37.5841 0C16.9971 0 0.252228 16.7469 0.252228 37.3338C0.252228 51.1149 7.78114 63.1473 18.9192 69.6165V143.999C18.9192 144.792 19.2717 145.541 19.8792 146.047L35.8791 159.38C36.3731 159.794 36.9806 159.999 37.5861 159.999C38.1936 159.999 38.7991 159.794 39.293 159.38L55.293 146.047C55.9005 145.541 56.253 144.79 56.253 143.999V138.665C56.253 137.958 55.9722 137.279 55.4722 136.779L46.6905 127.997L54.1377 120.55C55.1814 119.507 55.1814 117.82 54.1377 116.78L46.6905 109.333L47.9712 108.052L91.2863 151.367C93.2403 153.321 95.7738 154.486 98.4189 154.647C98.628 154.657 98.8352 154.665 99.0423 154.665C101.566 154.665 103.876 153.731 105.607 152L144.258 113.352C146.126 111.48 147.068 108.926 146.901 106.16L146.897 106.162ZM70.9165 7.99897C87.8246 7.99897 101.582 21.7562 101.582 38.6644C101.582 43.841 100.273 48.8543 97.8074 53.3497C94.519 50.5732 90.5514 48.7348 86.4423 48.1173L73.8185 46.2192C74.5435 43.2913 74.9139 40.3155 74.9139 37.3319C74.9139 26.1739 69.9704 16.1732 62.1865 9.32749C65.0208 8.47102 67.9387 7.99897 70.9145 7.99897H70.9165ZM34.9171 138.665C34.9171 140.137 33.722 141.332 32.2501 141.332C30.7782 141.332 29.5831 140.137 29.5831 138.665V73.7814C31.32 74.1618 33.1006 74.4028 34.9171 74.5303V138.665ZM38.9724 46.7191C37.6359 48.0516 36.636 49.637 35.9508 51.3619C35.8891 51.5173 35.8273 51.6707 35.7716 51.828C35.5246 52.5291 35.3095 53.2442 35.172 53.9851V53.9891C35.0366 54.7201 34.9749 55.469 34.947 56.2278C34.941 56.417 34.937 56.6043 34.939 56.7935C34.939 57.5623 34.9788 58.3371 35.0964 59.1219L36.6221 69.274C35.907 69.256 35.192 69.2162 34.4869 69.1485C34.1901 69.1186 33.8873 69.1146 33.5926 69.0768C32.4294 68.9334 31.2801 68.7222 30.1468 68.4514C29.8879 68.3896 29.6409 68.302 29.3839 68.2343C28.4777 67.9913 27.5794 67.7204 26.6931 67.3977C26.4042 67.2902 26.1214 67.1726 25.8366 67.0611C24.9622 66.7125 24.0958 66.3261 23.2393 65.8959C12.7865 60.6237 5.58023 49.8183 5.58023 37.3338C5.58023 19.6887 19.935 5.33398 37.5801 5.33398C55.2252 5.33398 69.58 19.6887 69.58 37.3338C69.58 40.0486 69.2254 42.7614 68.5203 45.4244L51.3692 42.8491C50.5326 42.7216 49.706 42.6838 48.8834 42.6897C48.7261 42.6917 48.5687 42.6917 48.4114 42.6977C47.5868 42.7296 46.7761 42.8172 45.9874 42.9785C45.9695 42.9845 45.9476 42.9885 45.9296 42.9945C45.0931 43.1698 44.2844 43.4247 43.5036 43.7414C43.4877 43.7474 43.4718 43.7514 43.4558 43.7593C41.7927 44.4425 40.265 45.4284 38.9704 46.7211L38.9724 46.7191ZM64.25 82.6647C58.3703 82.6647 53.584 77.8784 53.584 71.9987C53.584 71.2279 53.6756 70.481 53.831 69.756C48.1305 66.5293 43.5415 61.9641 40.2949 56.5844C40.3367 54.2301 41.1673 52.067 42.7428 50.4895C42.8225 50.4099 42.93 50.3581 43.0117 50.2784C45.7046 56.3772 50.2597 61.5578 56.255 65.0096C58.2129 62.7748 61.0532 61.3328 64.25 61.3328C70.1337 61.3328 74.9159 66.117 74.9159 71.9987C74.9159 77.8784 70.1317 82.6647 64.248 82.6647H64.25ZM83.3172 122.534C82.6341 122.534 81.9509 122.273 81.431 121.753C80.3873 120.712 80.3873 119.025 81.431 117.983L98.401 101.013C99.4447 99.9732 101.132 99.9732 102.171 101.013C103.215 102.057 103.215 103.744 102.171 104.783L85.2015 121.753C84.6816 122.273 83.9984 122.534 83.3153 122.534H83.3172ZM90.8621 130.079C90.1789 130.079 89.4977 129.818 88.9759 129.298C87.9342 128.254 87.9342 126.567 88.9759 125.528L100.287 114.212C101.331 113.171 103.018 113.171 104.058 114.212C105.101 115.256 105.101 116.941 104.058 117.983L92.7463 129.298C92.2245 129.818 91.5413 130.079 90.8601 130.079H90.8621ZM117.259 119.869L100.289 136.839C99.7693 137.359 99.0861 137.62 98.403 137.62C97.7198 137.62 97.0386 137.359 96.5167 136.839C95.477 135.795 95.477 134.108 96.5167 133.069L113.487 116.099C114.53 115.055 116.215 115.055 117.257 116.099C118.299 117.142 118.301 118.825 117.257 119.869H117.259Z" fill="white"/>
</g>
</g>
</g>
</g>
</g>
</g>
<defs>
<clipPath id="clip0_309_453">
<rect width="146.667" height="159.999" fill="white" transform="translate(0.25)"/>
</clipPath>
</defs>
</svg>
