<svg width="125" height="160" viewBox="0 0 125 160" fill="none" xmlns="http://www.w3.org/2000/svg">
<g id="Listing 1" clip-path="url(#clip0_309_441)">
<g id="Layer_x0020_1">
<g id="_105553233680352">
<g id="Group">
<g id="Group_2">
<path id="Vector" d="M115.805 3.24624e-07H9.67484C4.60757 3.24624e-07 0.500061 4.41406 0.500061 9.85928V150.14C0.500061 155.586 4.60757 160 9.67484 160H115.805C120.872 160 124.98 155.586 124.98 150.14L124.98 9.85904C124.98 4.41382 120.872 -0.000244141 115.805 -0.000244141V3.24624e-07ZM23.6553 122.319C18.7093 122.319 14.7001 118.01 14.7001 112.696C14.7001 107.381 18.7093 103.072 23.6553 103.072C28.6013 103.072 32.6106 107.381 32.6106 112.696C32.6106 118.01 28.6013 122.319 23.6553 122.319ZM23.6553 89.6234C18.7093 89.6234 14.7001 85.3147 14.7001 80C14.7001 74.6854 18.7093 70.3767 23.6553 70.3767C28.6013 70.3767 32.6106 74.6854 32.6106 80C32.6106 85.3147 28.6013 89.6234 23.6553 89.6234ZM23.6553 56.9279C18.7093 56.9279 14.7001 52.6192 14.7001 47.3045C14.7001 41.9898 18.7093 37.6811 23.6553 37.6811C28.6013 37.6811 32.6106 41.9898 32.6106 47.3045C32.6106 52.6192 28.6013 56.9279 23.6553 56.9279ZM103.011 121.391H47.6931C43.2243 121.391 39.6011 117.498 39.6011 112.696C39.6011 107.893 43.224 104 47.6931 104H103.011C107.48 104 111.103 107.893 111.103 112.696C111.103 117.498 107.48 121.391 103.011 121.391ZM103.011 88.6957H47.6931C43.2243 88.6957 39.6011 84.8023 39.6011 80C39.6011 75.1978 43.224 71.3044 47.6931 71.3044H103.011C107.48 71.3044 111.103 75.1978 111.103 80C111.103 84.8023 107.48 88.6957 103.011 88.6957ZM103.011 56.0001H47.6931C43.2243 56.0001 39.6011 52.1068 39.6011 47.3045C39.6011 42.5022 43.224 38.6089 47.6931 38.6089H103.011C107.48 38.6089 111.103 42.5022 111.103 47.3045C111.103 52.1068 107.48 56.0001 103.011 56.0001Z" fill="white"/>
</g>
</g>
</g>
</g>
</g>
<defs>
<clipPath id="clip0_309_441">
<rect width="124.48" height="160" fill="white" transform="translate(0.5)"/>
</clipPath>
</defs>
</svg>
