<svg width="144" height="160" viewBox="0 0 144 160" fill="none" xmlns="http://www.w3.org/2000/svg">
<g id="FM 1" clip-path="url(#clip0_309_432)">
<g id="Layer_x0020_1">
<path id="Vector" fill-rule="evenodd" clip-rule="evenodd" d="M38.0331 113.206C32.5661 116.547 11.7386 119.749 7.66642 123.525C7.02061 124.122 6.32995 125.149 5.86801 126.207C4.16826 130.091 0.679077 153.179 0.755319 156.045C0.894348 159.112 2.85421 159.426 5.9891 159.588C49.9538 160.068 94.5598 160.198 138.511 159.574C141.646 159.341 143.166 158.781 143.754 155.861C143.911 151.914 139.919 129.683 138.771 126.427C137.201 121.965 132.555 121.624 131.16 120.942C130.909 120.821 130.927 120.817 130.788 120.7C130.021 120.745 128.514 120.225 127.837 119.915C127.268 119.79 126.702 119.633 126.142 119.462L126.128 119.48C120.347 125.844 114.181 132.369 108.333 138.608C105.548 141.577 100.641 142.25 97.3269 139.756C92.1021 135.818 93.4385 130.208 97.4704 126.145C101.377 122.207 105.821 118.171 109.947 114.376C109.584 114.228 109.337 114.107 109.256 114.022C108.548 114.022 107.054 113.551 106.471 113.201C102.305 112.336 100.838 110.183 98.3225 113.143C84.137 129.804 59.0983 130.598 45.9892 112.982C43.8679 110.129 42.8812 112.116 38.0331 113.21V113.206ZM99.6231 133.518C99.2867 130.428 103.807 130.149 104.13 132.939C104.48 136.007 99.9191 136.226 99.6231 133.518ZM106.758 137.137C110.449 133.199 114.105 129.212 117.773 125.252C118.975 123.768 125.393 117.381 125.998 116.256C128.662 116.816 130.227 117.435 133.228 116.776C142.933 114.65 144.44 103.586 142.444 102.563C141.39 102.025 139.816 104.124 138.601 105.33C137.592 106.335 136.188 107.963 135.067 108.802L128.492 106.743C127.797 105.703 126.832 101.666 126.29 100.119L130.824 95.2486C131.941 94.1274 133.537 93.5175 131.855 91.9299H129.183C127.577 92.6923 123.635 92.3739 120.213 97.4507C117.742 101.115 117.594 104.33 118.832 108.954C118.284 109.582 117.67 110.04 117.011 110.632C116.325 111.246 115.921 111.771 115.239 112.425L109.544 117.664C109.216 117.96 108.96 118.162 108.673 118.471C106.171 121.175 97.8202 128.19 96.7573 130.289C95.4029 132.975 96.2057 136.222 98.614 138.038C101.036 139.864 104.713 139.316 106.758 137.137ZM34.6874 68.1334C44.1056 141.671 101.668 140.074 110.436 67.6311L110.58 66.1422C84.8815 67.4786 60.3316 67.9675 34.4497 66.0928L34.6874 68.1379V68.1334ZM55.0799 5.91556C53.8062 13.9165 56.1877 32.8962 58.3583 40.7267C57.865 40.8613 56.6675 41.1842 56.1877 41.1617C53.1873 33.1519 49.8102 14.9435 48.124 11.9566C47.967 12.0329 47.81 12.136 47.6486 12.2571C37.5218 16.8226 31.6961 33.1563 30.4089 43.6239C29.7272 45.6107 29.2429 45.4896 28.2966 46.8844C26.9018 48.9384 26.6731 50.9969 26.6237 53.3918L26.4757 59.7917C26.5565 61.1147 26.8211 61.5721 27.7629 62.2359C34.5977 66.0659 108.866 66.0031 116.486 62.3615C117.863 61.9085 118.509 61.2492 118.616 59.5674L118.468 53.1676C118.414 50.7772 118.186 48.7187 116.795 46.6601C115.849 45.2653 115.365 45.3864 114.683 43.3997C113.396 32.9231 107.566 16.576 97.4255 12.0239C97.3897 12.145 97.3583 12.2705 97.3269 12.3916C97.2058 12.3064 97.0892 12.2347 96.9726 12.1764C96.8066 12.4679 90.8598 36.1746 89.012 41.1169L86.7382 40.498C88.9089 32.672 91.2903 13.6922 90.0166 5.68684C89.2542 0.888084 78.5355 0.233301 74.6651 -0.00439453H71.0414C66.8884 0.24227 55.8289 1.2379 55.0889 5.91108L55.0799 5.91556Z" fill="white"/>
</g>
</g>
<defs>
<clipPath id="clip0_309_432">
<rect width="143.004" height="160" fill="white" transform="translate(0.75)"/>
</clipPath>
</defs>
</svg>
