<svg width="152" height="160" viewBox="0 0 152 160" fill="none" xmlns="http://www.w3.org/2000/svg">
<g id="Design 1" clip-path="url(#clip0_309_420)">
<g id="Layer_x0020_1">
<g id="_105553233445056">
<path id="Vector" fill-rule="evenodd" clip-rule="evenodd" d="M19.3622 114.086C21.0979 116.33 24.1557 118.996 26.1904 120.891L79.1046 68.9831C78.9884 66.7293 76.6869 57.7826 84.8658 55.9574C91.0405 54.58 96.3159 59.8726 95.1213 66.0168C93.4353 74.6872 84.5839 71.1836 82.4291 72.9916C74.7265 79.4558 46.0575 108.881 35.0875 119.579C32.8661 121.743 31.1686 122.894 30.096 125.218C31.0162 126.895 33.5596 130.01 35.1675 131.454L65.6979 116.1C78.9007 109.582 101.067 101.327 116.168 97.0043C123.28 94.9677 121.037 97.2939 126.349 84.2321L139.75 50.783C132.705 41.4705 106.566 17.5797 101.395 10.4353L60.9445 27.176C56.5645 28.9745 56.1797 28.1534 54.8765 32.9392C49.9498 51.0326 43.314 67.2265 35.6305 83.9406C33.1119 89.4199 30.3589 93.9809 27.8231 99.0753C25.2702 104.202 21.7628 109.241 19.368 114.088L19.3622 114.086Z" fill="white"/>
<path id="Vector_2" fill-rule="evenodd" clip-rule="evenodd" d="M41.2165 159.999H47.5702C50.1212 158.738 54.1145 157.987 57.3056 156.431C65.4902 152.437 73.0957 146.484 80.7449 141.591C90.8462 135.133 102.792 129.362 117.252 126.839C120.005 128.743 118.686 129.998 123.381 132.336C126.389 133.833 129.466 134.199 132.916 133.233C146.231 129.509 144.404 109.396 130.491 108.167C120.296 107.268 117.04 116.691 116.69 116.999C112.979 118.588 107.522 119.024 103.34 120.32C75.1837 129.038 63.3164 145.743 48.5761 148.999C37.2842 151.494 25.8341 141.629 25.1425 139.978C24.6872 138.888 28.3089 129.615 20.8673 124.224C8.49897 115.266 -5.80315 130.93 2.44053 141.936C6.42614 147.255 10.6061 147.44 18.6535 146.627C22.1514 151.33 28.7833 155.619 34.4169 157.985C36.6479 158.923 39.5952 159.252 41.2184 159.997L41.2165 159.999Z" fill="white"/>
<path id="Vector_3" fill-rule="evenodd" clip-rule="evenodd" d="M114.184 0.000732422H113.92C111.803 2.02783 109.766 4.35976 107.288 5.9944C108.557 8.48827 142.829 43.7644 145.182 45.2161L151.33 39.0643C150.482 36.5895 149.323 35.8141 147.161 34.0899L123.891 10.0505C120.761 6.806 115.24 2.00878 114.184 0.000732422Z" fill="white"/>
</g>
</g>
</g>
<defs>
<clipPath id="clip0_309_420">
<rect width="151.33" height="159.999" fill="white"/>
</clipPath>
</defs>
</svg>
