<svg width="123" height="160" viewBox="0 0 123 160" fill="none" xmlns="http://www.w3.org/2000/svg">
<g id="Layer_x0020_1">
<path id="Vector" fill-rule="evenodd" clip-rule="evenodd" d="M48.2816 23.6211L49.0119 26.873L47.4136 23.8002C46.5501 21.9355 42.4255 13.7736 41.1532 12.4462C37.6947 13.4843 33.7585 16.286 31.9855 18.5504C27.6176 24.1309 34.9343 30.4096 41.1441 37.685C43.7116 40.6934 45.907 43.8442 48.6215 46.1132C52.5761 44.547 55.7821 43.4998 61.1008 43.9361C67.3106 44.4459 66.0016 41.5707 69.7449 38.7276L67.5632 44.4689C69.5612 45.6585 71.2376 45.856 73.5755 46.3107C78.1456 40.4729 92.5861 26.8454 91.6215 20.9296C91.0658 17.5353 86.9734 13.7874 84.562 12.7586C82.9453 15.6706 79.6704 18.5412 78.7151 21.4624L77.7873 22.6382L77.9986 21.4073C79.6245 17.2 83.6664 9.18519 84.4196 5.04227C71.2514 0.417086 55.8831 -3.67531 43.1742 5.44646L48.2908 23.6119L48.2816 23.6211ZM49.3059 59.3503C49.5401 57.6876 53.1319 51.3401 54.0413 49.5672C47.4365 50.7062 31.5033 64.9998 26.9332 70.7227C24.5862 73.6576 22.2162 76.1884 19.9151 79.252C13.2781 88.1073 6.45286 99.5761 3.01727 110.907C-4.69444 136.316 1.56128 154.605 30.9291 158.114C52.3924 160.677 106.163 163.461 117.646 145.874C124.287 135.7 123.254 122.307 119.331 111.293C112.41 91.8231 87.2076 53.2554 67.7561 49.2319L70.2088 62.5838L63.581 48.8047L58.57 48.8001C56.5124 49.2686 52.668 56.0296 50.5598 58.271L49.6274 59.1069C49.5861 59.0059 49.4161 59.286 49.3013 59.3595L49.3059 59.3503ZM70.5992 88.5437V103.402H62.2261L50.128 88.5437H44.4556V103.402H41.2635V106.305H44.4556V107.935H41.2451V110.838H44.4556V125.669H51.2993V110.838H59.6907L71.7704 125.669H77.4474V110.838H80.6166V107.935H77.4474V106.305H80.6396V103.402H77.4474V88.5437H70.6038H70.5992ZM51.2947 107.935V106.305H55.9979L57.3253 107.935H51.2947ZM70.5992 106.305V107.935H65.9189L64.5915 106.305H70.5992ZM70.5992 110.838V113.686L68.2797 110.838H70.5992ZM51.2947 103.402V100.531L53.6325 103.402H51.2947Z" fill="white"/>
</g>
</svg>
