<svg xmlns="http://www.w3.org/2000/svg" width="24" height="25" viewBox="0 0 24 25" fill="none">
  <path d="M11.943 1.73438H13.5C13.6989 1.73438 13.8897 1.81339 14.0303 1.95404C14.171 2.0947 14.25 2.28546 14.25 2.48438C14.25 2.68329 14.171 2.87405 14.0303 3.01471C13.8897 3.15536 13.6989 3.23438 13.5 3.23438H12C9.622 3.23438 7.914 3.23638 6.614 3.41038C5.335 3.58238 4.564 3.91037 3.994 4.47937C3.425 5.04937 3.098 5.81938 2.926 7.09837C2.752 8.39837 2.75 10.1064 2.75 12.4844C2.75 14.8624 2.752 16.5704 2.926 17.8704C3.098 19.1494 3.426 19.9204 3.995 20.4904C4.565 21.0594 5.335 21.3864 6.614 21.5584C7.914 21.7324 9.622 21.7344 12 21.7344C14.378 21.7344 16.086 21.7324 17.386 21.5584C18.665 21.3864 19.436 21.0584 20.006 20.4894C20.575 19.9194 20.902 19.1494 21.074 17.8704C21.248 16.5704 21.25 14.8624 21.25 12.4844V10.9844C21.25 10.7855 21.329 10.5947 21.4697 10.454C21.6103 10.3134 21.8011 10.2344 22 10.2344C22.1989 10.2344 22.3897 10.3134 22.5303 10.454C22.671 10.5947 22.75 10.7855 22.75 10.9844V12.5414C22.75 14.8504 22.75 16.6594 22.56 18.0714C22.366 19.5154 21.96 20.6554 21.066 21.5504C20.171 22.4454 19.031 22.8504 17.586 23.0444C16.175 23.2344 14.366 23.2344 12.057 23.2344H11.943C9.634 23.2344 7.825 23.2344 6.413 23.0444C4.969 22.8504 3.829 22.4444 2.934 21.5504C2.039 20.6554 1.634 19.5154 1.44 18.0704C1.25 16.6594 1.25 14.8504 1.25 12.5414V12.4274C1.25 10.1184 1.25 8.30937 1.44 6.89738C1.634 5.45338 2.04 4.31337 2.934 3.41838C3.829 2.52338 4.969 2.11838 6.414 1.92438C7.825 1.73438 9.634 1.73438 11.943 1.73438Z" fill="white"/>
  <path fill-rule="evenodd" clip-rule="evenodd" d="M15.25 5.48438C15.25 4.48981 15.6451 3.53599 16.3483 2.83272C17.0516 2.12946 18.0054 1.73438 19 1.73438C19.9946 1.73438 20.9484 2.12946 21.6517 2.83272C22.3549 3.53599 22.75 4.48981 22.75 5.48438C22.75 6.47894 22.3549 7.43276 21.6517 8.13603C20.9484 8.83929 19.9946 9.23438 19 9.23438C18.0054 9.23438 17.0516 8.83929 16.3483 8.13603C15.6451 7.43276 15.25 6.47894 15.25 5.48438ZM19 3.23438C18.7045 3.23438 18.4119 3.29257 18.139 3.40565C17.866 3.51872 17.6179 3.68445 17.409 3.89338C17.2001 4.10232 17.0343 4.35035 16.9213 4.62334C16.8082 4.89632 16.75 5.1889 16.75 5.48438C16.75 5.77985 16.8082 6.07243 16.9213 6.34541C17.0343 6.6184 17.2001 6.86643 17.409 7.07537C17.6179 7.2843 17.866 7.45003 18.139 7.5631C18.4119 7.67618 18.7045 7.73438 19 7.73438C19.5967 7.73438 20.169 7.49732 20.591 7.07537C21.0129 6.65341 21.25 6.08111 21.25 5.48438C21.25 4.88764 21.0129 4.31534 20.591 3.89338C20.169 3.47143 19.5967 3.23438 19 3.23438Z" fill="white"/>
  <path d="M13.7492 10.4844C13.7492 10.8984 14.0852 11.2344 14.4992 11.2344H15.1892L13.1762 13.2474C13.153 13.2707 13.1254 13.2891 13.095 13.3017C13.0646 13.3143 13.0321 13.3208 12.9992 13.3208C12.9663 13.3208 12.9337 13.3143 12.9034 13.3017C12.873 13.2891 12.8454 13.2707 12.8222 13.2474L11.2362 11.6614C10.908 11.3335 10.4631 11.1492 9.99918 11.1492C9.53526 11.1492 9.09033 11.3335 8.76218 11.6614L6.46918 13.9544C6.39549 14.023 6.33639 14.1058 6.2954 14.1978C6.2544 14.2898 6.23236 14.3892 6.23059 14.4899C6.22881 14.5906 6.24733 14.6906 6.28505 14.784C6.32278 14.8774 6.37892 14.9622 6.45014 15.0334C6.52136 15.1046 6.60619 15.1608 6.69958 15.1985C6.79297 15.2362 6.893 15.2547 6.9937 15.253C7.0944 15.2512 7.19372 15.2291 7.28571 15.1882C7.37771 15.1472 7.46052 15.0881 7.52918 15.0144L9.82218 12.7214C9.8454 12.6981 9.87299 12.6796 9.90336 12.667C9.93373 12.6544 9.96629 12.6479 9.99918 12.6479C10.0321 12.6479 10.0646 12.6544 10.095 12.667C10.1254 12.6796 10.153 12.6981 10.1762 12.7214L11.7622 14.3074C12.0903 14.6353 12.5353 14.8195 12.9992 14.8195C13.4631 14.8195 13.908 14.6353 14.2362 14.3074L16.2492 12.2954V12.9844C16.2492 13.1833 16.3282 13.3741 16.4688 13.5147C16.6095 13.6554 16.8003 13.7344 16.9992 13.7344C17.1981 13.7344 17.3889 13.6554 17.5295 13.5147C17.6702 13.3741 17.7492 13.1833 17.7492 12.9844V10.4844C17.7492 10.2855 17.6702 10.0947 17.5295 9.95405C17.3889 9.81339 17.1981 9.73438 16.9992 9.73438H14.4992C14.3003 9.73438 14.1095 9.81339 13.9688 9.95405C13.8282 10.0947 13.7492 10.2855 13.7492 10.4844Z" fill="white"/>
</svg>