<svg xmlns="http://www.w3.org/2000/svg" width="20" height="20" viewBox="0 0 20 20" fill="none">
  <path d="M9.99984 1.66797C5.3915 1.66797 1.6665 5.39297 1.6665 10.0013C1.6665 14.6096 5.3915 18.3346 9.99984 18.3346C14.6082 18.3346 18.3332 14.6096 18.3332 10.0013C18.3332 5.39297 14.6082 1.66797 9.99984 1.66797ZM9.99984 16.668C6.32484 16.668 3.33317 13.6763 3.33317 10.0013C3.33317 6.3263 6.32484 3.33464 9.99984 3.33464C13.6748 3.33464 16.6665 6.3263 16.6665 10.0013C16.6665 13.6763 13.6748 16.668 9.99984 16.668ZM12.9915 5.83464L9.99984 8.8263L7.00817 5.83464L5.83317 7.00964L8.82484 10.0013L5.83317 12.993L7.00817 14.168L9.99984 11.1763L12.9915 14.168L14.1665 12.993L11.1748 10.0013L14.1665 7.00964L12.9915 5.83464Z" fill="#909090"/>
</svg>