<svg xmlns="http://www.w3.org/2000/svg" width="16" height="16" viewBox="0 0 16 16" fill="none">
  <path d="M2.66797 6H4.0013V2H5.33464L7.61463 6H10.668V2H12.0013V6H13.3346V7.33333H12.0013V8.66667H13.3346V10H12.0013V14H10.668L8.3813 10H5.33464V14H4.0013V10H2.66797V8.66667H4.0013V7.33333H2.66797V6ZM5.33464 6H6.08797L5.33464 4.68667V6ZM5.33464 7.33333V8.66667H7.61463L6.85463 7.33333H5.33464ZM10.668 11.3333V10H9.9013L10.668 11.3333ZM8.37464 7.33333L9.1413 8.66667H10.668V7.33333H8.37464Z" fill="#333333"/>
</svg>