<svg xmlns="http://www.w3.org/2000/svg" width="21" height="20" viewBox="0 0 21 20" fill="none">
  <path d="M6.90656 16.6651C6.53323 16.6651 6.21545 16.534 5.95323 16.2718C5.69101 16.0095 5.5599 15.692 5.5599 15.3193V4.99844H4.72656V4.1651H8.0599V3.52344H13.0599V4.1651H16.3932V4.99844H15.5599V15.3193C15.5599 15.7026 15.4316 16.0229 15.1749 16.2801C14.9182 16.5373 14.5977 16.6657 14.2132 16.6651H6.90656ZM14.7266 4.99844H6.39323V15.3193C6.39323 15.4687 6.44128 15.5915 6.5374 15.6876C6.63351 15.7837 6.75656 15.8318 6.90656 15.8318H14.2141C14.3418 15.8318 14.4593 15.7784 14.5666 15.6718C14.6738 15.5651 14.7271 15.4473 14.7266 15.3184V4.99844ZM8.73323 14.1651H9.56656V6.6651H8.73323V14.1651ZM11.5532 14.1651H12.3866V6.6651H11.5532V14.1651Z" fill="#203645"/>
</svg>