<svg xmlns="http://www.w3.org/2000/svg" width="21" height="20" viewBox="0 0 21 20" fill="none">
  <g clip-path="url(#clip0_2565_10262)">
    <path d="M18.3346 3.33594H2.77908C2.48439 3.33594 2.20178 3.453 1.99341 3.66137C1.78503 3.86975 1.66797 4.15236 1.66797 4.44705V15.5582C1.66797 15.8528 1.78503 16.1355 1.99341 16.3438C2.20178 16.5522 2.48439 16.6693 2.77908 16.6693H18.3346C18.6293 16.6693 18.9119 16.5522 19.1203 16.3438C19.3287 16.1355 19.4457 15.8528 19.4457 15.5582V4.44705C19.4457 4.15236 19.3287 3.86975 19.1203 3.66137C18.9119 3.453 18.6293 3.33594 18.3346 3.33594ZM18.3346 15.5582H2.77908V4.44705H18.3346V15.5582Z" fill="#203645"/>
    <path d="M5.55946 7.77517H15.5595C15.7068 7.77517 15.8481 7.71664 15.9523 7.61246C16.0565 7.50827 16.115 7.36696 16.115 7.21962C16.115 7.07228 16.0565 6.93097 15.9523 6.82678C15.8481 6.72259 15.7068 6.66406 15.5595 6.66406H5.55946C5.41212 6.66406 5.27081 6.72259 5.16662 6.82678C5.06244 6.93097 5.00391 7.07228 5.00391 7.21962C5.00391 7.36696 5.06244 7.50827 5.16662 7.61246C5.27081 7.71664 5.41212 7.77517 5.55946 7.77517Z" fill="black"/>
    <path d="M5.55946 10.0017H15.5595C15.7068 10.0017 15.8481 9.9432 15.9523 9.83902C16.0565 9.73483 16.115 9.59352 16.115 9.44618C16.115 9.29884 16.0565 9.15753 15.9523 9.05334C15.8481 8.94916 15.7068 8.89062 15.5595 8.89062H5.55946C5.41212 8.89062 5.27081 8.94916 5.16662 9.05334C5.06244 9.15753 5.00391 9.29884 5.00391 9.44618C5.00391 9.59352 5.06244 9.73483 5.16662 9.83902C5.27081 9.9432 5.41212 10.0017 5.55946 10.0017Z" fill="black"/>
    <path d="M5.55946 12.2205H11.115C11.2624 12.2205 11.4037 12.162 11.5079 12.0578C11.612 11.9536 11.6706 11.8123 11.6706 11.6649C11.6706 11.5176 11.612 11.3763 11.5079 11.2721C11.4037 11.1679 11.2624 11.1094 11.115 11.1094H5.55946C5.41212 11.1094 5.27081 11.1679 5.16662 11.2721C5.06244 11.3763 5.00391 11.5176 5.00391 11.6649C5.00391 11.8123 5.06244 11.9536 5.16662 12.0578C5.27081 12.162 5.41212 12.2205 5.55946 12.2205Z" fill="black"/>
  </g>
  <defs>
    <clipPath id="clip0_2565_10262">
      <rect width="20" height="20" fill="white" transform="translate(0.558594)"/>
    </clipPath>
  </defs>
</svg>