<svg width="20" height="20" viewBox="0 0 20 20" fill="none" xmlns="http://www.w3.org/2000/svg">
<g id="basil:logout-outline">
<path id="Vector" d="M10 15.2096C9.83424 15.2096 9.67527 15.2755 9.55806 15.3927C9.44085 15.5099 9.375 15.6689 9.375 15.8346C9.375 16.0004 9.44085 16.1594 9.55806 16.2766C9.67527 16.3938 9.83424 16.4596 10 16.4596H15C15.3868 16.4596 15.7577 16.306 16.0312 16.0325C16.3047 15.759 16.4583 15.3881 16.4583 15.0013V5.0013C16.4583 4.61453 16.3047 4.2436 16.0312 3.9701C15.7577 3.69661 15.3868 3.54297 15 3.54297H10C9.83424 3.54297 9.67527 3.60882 9.55806 3.72603C9.44085 3.84324 9.375 4.00221 9.375 4.16797C9.375 4.33373 9.44085 4.4927 9.55806 4.60991C9.67527 4.72712 9.83424 4.79297 10 4.79297H15C15.0553 4.79297 15.1082 4.81492 15.1473 4.85399C15.1864 4.89306 15.2083 4.94605 15.2083 5.0013V15.0013C15.2083 15.0566 15.1864 15.1095 15.1473 15.1486C15.1082 15.1877 15.0553 15.2096 15 15.2096H10Z" fill="#203645"/>
<path id="Vector_2" fill-rule="evenodd" clip-rule="evenodd" d="M12.0858 11.9694C12.6608 11.9694 13.1275 11.5028 13.1275 10.9278V9.0611C13.1275 8.4861 12.6608 8.01943 12.0858 8.01943H8.24167L8.225 7.8361L8.18 7.37277C8.16409 7.20912 8.10895 7.05173 8.01926 6.91393C7.92956 6.77613 7.80797 6.662 7.66477 6.5812C7.52158 6.5004 7.36101 6.45533 7.19669 6.4498C7.03237 6.44427 6.86913 6.47844 6.72083 6.54943C5.35816 7.20117 4.12489 8.0945 3.08083 9.1861L2.99833 9.27193C2.81202 9.46632 2.70801 9.72517 2.70801 9.99443C2.70801 10.2637 2.81202 10.5225 2.99833 10.7169L3.08167 10.8028C4.12548 11.8943 5.35845 12.7876 6.72083 13.4394C6.86913 13.5104 7.03237 13.5446 7.19669 13.5391C7.36101 13.5335 7.52158 13.4885 7.66477 13.4077C7.80797 13.3269 7.92956 13.2127 8.01926 13.0749C8.10895 12.9371 8.16409 12.7797 8.18 12.6161L8.225 12.1528L8.24167 11.9694H12.0858ZM7.6625 10.7194C7.50346 10.7196 7.35045 10.7803 7.23464 10.8893C7.11882 10.9983 7.04892 11.1474 7.03917 11.3061C7.02361 11.5478 7.00417 11.7897 6.98083 12.0319L6.9675 12.1669C5.87994 11.6057 4.89046 10.872 4.0375 9.99443C4.89046 9.11682 5.87994 8.38315 6.9675 7.82193L6.98083 7.95693C7.00417 8.1986 7.02361 8.44054 7.03917 8.68276C7.04892 8.84151 7.11882 8.99056 7.23464 9.09956C7.35045 9.20856 7.50346 9.26931 7.6625 9.26943H11.8775V10.7194H7.6625Z" fill="#203645"/>
</g>
</svg>
