<svg width="26" height="26" viewBox="0 0 26 26" fill="none" xmlns="http://www.w3.org/2000/svg">
<g id="Drop Down (Bedroom)/mdi:naira">
<path id="Vector" d="M4.33333 9.75H6.5V3.25H8.66667L12.3717 9.75H17.3333V3.25H19.5V9.75H21.6667V11.9167H19.5V14.0833H21.6667V16.25H19.5V22.75H17.3333L13.6175 16.25H8.66667V22.75H6.5V16.25H4.33333V14.0833H6.5V11.9167H4.33333V9.75ZM8.66667 9.75H9.89083L8.66667 7.61583V9.75ZM8.66667 11.9167V14.0833H12.3717L11.1367 11.9167H8.66667ZM17.3333 18.4167V16.25H16.0875L17.3333 18.4167ZM13.6067 11.9167L14.8525 14.0833H17.3333V11.9167H13.6067Z" fill="#C2A269"/>
</g>
</svg>
