<svg xmlns="http://www.w3.org/2000/svg" width="20" height="20" viewBox="0 0 20 20" fill="none">
  <path d="M1.6665 6.66536C1.6665 6.44435 1.7543 6.23239 1.91058 6.07611C2.06686 5.91983 2.27882 5.83203 2.49984 5.83203H17.4998C17.7209 5.83203 17.9328 5.91983 18.0891 6.07611C18.2454 6.23239 18.3332 6.44435 18.3332 6.66536C18.3332 6.88638 18.2454 7.09834 18.0891 7.25462C17.9328 7.4109 17.7209 7.4987 17.4998 7.4987H2.49984C2.27882 7.4987 2.06686 7.4109 1.91058 7.25462C1.7543 7.09834 1.6665 6.88638 1.6665 6.66536ZM1.6665 9.9987C1.6665 9.77768 1.7543 9.56572 1.91058 9.40944C2.06686 9.25316 2.27882 9.16536 2.49984 9.16536H17.4998C17.7209 9.16536 17.9328 9.25316 18.0891 9.40944C18.2454 9.56572 18.3332 9.77768 18.3332 9.9987C18.3332 10.2197 18.2454 10.4317 18.0891 10.588C17.9328 10.7442 17.7209 10.832 17.4998 10.832H2.49984C2.27882 10.832 2.06686 10.7442 1.91058 10.588C1.7543 10.4317 1.6665 10.2197 1.6665 9.9987ZM2.49984 12.4987C2.27882 12.4987 2.06686 12.5865 1.91058 12.7428C1.7543 12.8991 1.6665 13.111 1.6665 13.332C1.6665 13.553 1.7543 13.765 1.91058 13.9213C2.06686 14.0776 2.27882 14.1654 2.49984 14.1654H12.4998C12.7209 14.1654 12.9328 14.0776 13.0891 13.9213C13.2454 13.765 13.3332 13.553 13.3332 13.332C13.3332 13.111 13.2454 12.8991 13.0891 12.7428C12.9328 12.5865 12.7209 12.4987 12.4998 12.4987H2.49984Z" fill="#909090"/>
</svg>