<svg xmlns="http://www.w3.org/2000/svg" width="12" height="12" viewBox="0 0 12 12" fill="none">
  <path fill-rule="evenodd" clip-rule="evenodd" d="M7.59034 6.22233C7.49844 5.96231 7.32817 5.73719 7.10298 5.57798C6.8778 5.41876 6.60879 5.33329 6.33301 5.33333V5H5.66634V5.33333C5.31272 5.33333 4.97358 5.47381 4.72353 5.72386C4.47348 5.97391 4.33301 6.31304 4.33301 6.66667C4.33301 7.02029 4.47348 7.35943 4.72353 7.60948C4.97358 7.85952 5.31272 8 5.66634 8V9.33333C5.37634 9.33333 5.12934 9.14833 5.03734 8.889C5.02369 8.84657 5.00167 8.80731 4.97258 8.77354C4.9435 8.73977 4.90793 8.71218 4.86799 8.69239C4.82806 8.67261 4.78456 8.66103 4.74007 8.65835C4.69558 8.65567 4.651 8.66194 4.60898 8.67679C4.56696 8.69164 4.52834 8.71476 4.49541 8.7448C4.46247 8.77483 4.4359 8.81116 4.41726 8.85165C4.39861 8.89213 4.38828 8.93594 4.38686 8.98049C4.38544 9.02503 4.39297 9.06941 4.40901 9.111C4.50091 9.37102 4.67118 9.59614 4.89637 9.75536C5.12155 9.91457 5.39056 10 5.66634 10V10.3333H6.33301V10C6.68663 10 7.02577 9.85952 7.27582 9.60948C7.52587 9.35943 7.66634 9.02029 7.66634 8.66667C7.66634 8.31304 7.52587 7.97391 7.27582 7.72386C7.02577 7.47381 6.68663 7.33333 6.33301 7.33333V6C6.47088 5.99997 6.60537 6.04268 6.71796 6.12225C6.83055 6.20183 6.91569 6.31436 6.96167 6.44433C6.99111 6.5277 7.05246 6.59596 7.13223 6.63409C7.17173 6.65297 7.21455 6.66389 7.25827 6.66622C7.30198 6.66855 7.34573 6.66224 7.38701 6.64767C7.42829 6.63309 7.46629 6.61053 7.49885 6.58126C7.53141 6.552 7.55788 6.51661 7.57676 6.47711C7.59565 6.43762 7.60656 6.39479 7.60889 6.35107C7.61122 6.30736 7.60492 6.26361 7.59034 6.22233ZM5.66634 6C5.48953 6 5.31996 6.07024 5.19494 6.19526C5.06991 6.32029 4.99967 6.48986 4.99967 6.66667C4.99967 6.84348 5.06991 7.01305 5.19494 7.13807C5.31996 7.2631 5.48953 7.33333 5.66634 7.33333V6ZM6.33301 9.33333C6.50982 9.33333 6.67939 9.2631 6.80441 9.13807C6.92944 9.01305 6.99967 8.84348 6.99967 8.66667C6.99967 8.48986 6.92944 8.32029 6.80441 8.19526C6.67939 8.07024 6.50982 8 6.33301 8V9.33333Z" fill="#203645"/>
  <path fill-rule="evenodd" clip-rule="evenodd" d="M2.384 0.873667C3.202 0.473333 4.544 0 6.01267 0C7.45067 0 8.75734 0.453667 9.571 0.848667L9.617 0.871C9.86234 0.992333 10.0603 1.107 10.1997 1.2L8.96833 3C11.807 5.902 13.9997 11.999 6.01267 11.999C-1.97433 11.999 0.159335 6.01267 3.02267 3L1.79933 1.2C1.89367 1.13833 2.01333 1.06667 2.156 0.990667C2.22667 0.952667 2.30267 0.913445 2.384 0.873667ZM8.177 2.97633L9.16267 1.53533C8.246 1.60133 7.15533 1.81667 6.10533 2.12067C5.35533 2.33733 4.522 2.30433 3.75033 2.162C3.55587 2.126 3.36275 2.08308 3.17133 2.03333L3.81133 2.97567C5.183 3.464 6.805 3.464 8.177 2.97633ZM3.42633 3.54333C5.03133 4.16333 6.96034 4.16333 8.56534 3.54267C9.23512 4.24904 9.79553 5.05158 10.228 5.92367C10.6787 6.843 10.924 7.762 10.884 8.554C10.8453 9.31833 10.5447 9.97133 9.858 10.4567C9.14233 10.9623 7.93867 11.3323 6.01233 11.3323C4.084 11.3323 2.87467 10.9687 2.15233 10.4687C1.46067 9.98967 1.157 9.34533 1.114 8.59133C1.069 7.808 1.309 6.89367 1.758 5.968C2.18633 5.08533 2.784 4.23567 3.42633 3.54333ZM3.043 1.30533C3.30967 1.38467 3.58833 1.45367 3.871 1.506C4.58767 1.638 5.30633 1.65733 5.91967 1.47967C6.63439 1.27137 7.36134 1.10761 8.09634 0.989334C7.483 0.804667 6.76567 0.666667 6.01233 0.666667C4.864 0.666667 3.793 0.987 3.043 1.30533Z" fill="#203645"/>
</svg>