<svg xmlns="http://www.w3.org/2000/svg" width="24" height="25" viewBox="0 0 24 25" fill="none">
  <path d="M7 10.9844H7.5V10.4844V4.48438C7.5 3.65752 8.17314 2.98438 9 2.98438H19C19.8269 2.98438 20.5 3.65752 20.5 4.48438V21.4844C20.5 21.617 20.4473 21.7442 20.3536 21.8379C20.2598 21.9317 20.1326 21.9844 20 21.9844H4C3.86739 21.9844 3.74021 21.9317 3.64645 21.8379C3.55268 21.7442 3.5 21.617 3.5 21.4844V12.4844C3.5 11.6575 4.17314 10.9844 5 10.9844H7ZM5 11.9844H4.5V12.4844V20.4844V20.9844H5H11H11.5V20.4844V12.4844V11.9844H11H5ZM19 20.9844H19.5V20.4844V4.48438V3.98438H19H9H8.5V4.48438V10.4844V10.9844H9H11C11.8269 10.9844 12.5 11.6575 12.5 12.4844V20.4844V20.9844H13H19Z" stroke="white"/>
  <path d="M11 6.48438H13V8.48438H11V6.48438ZM15 6.48438H17V8.48438H15V6.48438ZM15 10.5154H17V12.4844H15V10.5154ZM15 14.4844H17V16.4844H15V14.4844ZM7 14.4854H9V16.4854H7V14.4854Z" fill="white"/>
</svg>