<svg xmlns="http://www.w3.org/2000/svg" width="20" height="20" viewBox="0 0 20 20" fill="none">
  <path d="M15.8333 2.4987H15V0.832031H13.3333V2.4987H6.66667V0.832031H5V2.4987H4.16667C3.24167 2.4987 2.5 3.24036 2.5 4.16536V15.832C2.5 16.2741 2.67559 16.698 2.98816 17.0105C3.30072 17.3231 3.72464 17.4987 4.16667 17.4987H15.8333C16.75 17.4987 17.5 16.7487 17.5 15.832V4.16536C17.5 3.72334 17.3244 3.29941 17.0118 2.98685C16.6993 2.67429 16.2754 2.4987 15.8333 2.4987ZM15.8333 15.832H4.16667V6.66536H15.8333V15.832ZM10 8.33203V9.9987H13.3333V12.4987H10V14.1654L6.66667 11.2487L10 8.33203Z" fill="#909090"/>
</svg>