<svg xmlns="http://www.w3.org/2000/svg" width="24" height="25" viewBox="0 0 24 25" fill="none">
  <path d="M22.9 21.6844L18.8 17.5844C19.2 16.5844 19 15.2844 18.1 14.4844C17.2 13.5844 15.9 13.3844 14.8 13.8844L16.7 15.7844L15.3 17.1844L13.3 15.1844C12.8 16.2844 13 17.5844 13.9 18.5844C14.8 19.4844 16 19.6844 17 19.2844L21.1 23.3844C21.3 23.5844 21.6 23.5844 21.7 23.3844L22.7 22.3844C23 22.0844 23 21.7844 22.9 21.6844ZM10 12.4844C12.2 12.4844 14 10.6844 14 8.48438C14 6.28437 12.2 4.48438 10 4.48438C7.8 4.48438 6 6.28437 6 8.48438C6 10.6844 7.8 12.4844 10 12.4844ZM10 6.48438C11.1 6.48438 12 7.38438 12 8.48438C12 9.58437 11.1 10.4844 10 10.4844C8.9 10.4844 8 9.58437 8 8.48438C8 7.38438 8.9 6.48438 10 6.48438ZM13 20.4844H2V17.4844C2 14.7844 7.3 13.4844 10 13.4844C10.5 13.4844 11.2 13.5844 11.9 13.6844C11.5 14.1844 11.3 14.7844 11.1 15.4844C10.7 15.4844 10.4 15.3844 10 15.3844C7 15.3844 3.9 16.8844 3.9 17.4844V18.5844H11.5C11.8 19.3844 12.4 19.9844 13 20.4844Z" fill="white"/>
</svg>