<svg xmlns="http://www.w3.org/2000/svg" width="24" height="24" viewBox="0 0 24 24" fill="none">
  <path d="M13.47 7.52934C13.6107 7.66979 13.8013 7.74868 14 7.74868C14.1988 7.74868 14.3894 7.66979 14.53 7.52934L15.25 6.80934V16.9993C15.25 17.1983 15.329 17.389 15.4697 17.5297C15.6104 17.6703 15.8011 17.7493 16 17.7493C16.1989 17.7493 16.3897 17.6703 16.5304 17.5297C16.671 17.389 16.75 17.1983 16.75 16.9993V6.80934L17.47 7.52934C17.5387 7.60303 17.6215 7.66213 17.7135 7.70312C17.8055 7.74411 17.9048 7.76615 18.0055 7.76793C18.1062 7.76971 18.2062 7.75118 18.2996 7.71346C18.393 7.67574 18.4779 7.6196 18.5491 7.54838C18.6203 7.47716 18.6764 7.39233 18.7142 7.29894C18.7519 7.20555 18.7704 7.10552 18.7686 7.00482C18.7668 6.90411 18.7448 6.8048 18.7038 6.7128C18.6628 6.6208 18.6037 6.538 18.53 6.46934L16.53 4.46934C16.3894 4.32889 16.1988 4.25 16 4.25C15.8013 4.25 15.6107 4.32889 15.47 4.46934L13.47 6.46934C13.3296 6.60997 13.2507 6.80059 13.2507 6.99934C13.2507 7.19809 13.3296 7.38871 13.47 7.52934ZM8.75003 17.1893L9.47003 16.4693C9.53869 16.3957 9.62149 16.3366 9.71349 16.2956C9.80549 16.2546 9.90481 16.2325 10.0055 16.2307C10.1062 16.229 10.2062 16.2475 10.2996 16.2852C10.393 16.3229 10.4779 16.3791 10.5491 16.4503C10.6203 16.5215 10.6764 16.6064 10.7142 16.6997C10.7519 16.7931 10.7704 16.8932 10.7686 16.9939C10.7668 17.0946 10.7448 17.1939 10.7038 17.2859C10.6628 17.3779 10.6037 17.4607 10.53 17.5293L8.53003 19.5293C8.38941 19.6698 8.19878 19.7487 8.00003 19.7487C7.80128 19.7487 7.61066 19.6698 7.47003 19.5293L5.47003 17.5293C5.39634 17.4607 5.33724 17.3779 5.29625 17.2859C5.25526 17.1939 5.23322 17.0946 5.23144 16.9939C5.22966 16.8932 5.24819 16.7931 5.28591 16.6997C5.32363 16.6064 5.37977 16.5215 5.45099 16.4503C5.52221 16.3791 5.60705 16.3229 5.70043 16.2852C5.79382 16.2475 5.89385 16.229 5.99455 16.2307C6.09526 16.2325 6.19457 16.2546 6.28657 16.2956C6.37857 16.3366 6.46137 16.3957 6.53003 16.4693L7.25003 17.1893V6.99934C7.25003 6.80043 7.32905 6.60966 7.4697 6.46901C7.61035 6.32836 7.80112 6.24934 8.00003 6.24934C8.19894 6.24934 8.38971 6.32836 8.53036 6.46901C8.67101 6.60966 8.75003 6.80043 8.75003 6.99934V17.1893Z" fill="black"/>
</svg>