<svg width="25" height="24" viewBox="0 0 25 24" fill="none" xmlns="http://www.w3.org/2000/svg">
<g id="Toilets icon">
<path id="Vector" d="M9.33337 22H17.3334V19.5C19.7434 17.87 21.3334 15.12 21.3334 12V4C21.3334 3.46957 21.1227 2.96086 20.7476 2.58579C20.3725 2.21071 19.8638 2 19.3334 2H15.3334C14.8029 2 14.2942 2.21071 13.9192 2.58579C13.5441 2.96086 13.3334 3.46957 13.3334 4V12H3.33337C3.33337 15.09 5.33337 18 9.33337 19.5V22ZM5.62337 14H19.0434C18.7623 14.9411 18.2869 15.8128 17.6478 16.5586C17.0087 17.3045 16.2203 17.908 15.3334 18.33V20H11.3334V18.33C9.33337 18 6.19337 15.91 5.62337 14ZM15.3334 4H19.3334V12H15.3334V4ZM16.3334 5V8H18.3334V5H16.3334Z" fill="#203645"/>
</g>
</svg>
