<svg xmlns="http://www.w3.org/2000/svg" width="24" height="25" viewBox="0 0 24 25" fill="none">
  <path d="M22.9503 14.5836C22.8715 14.6427 22.7818 14.6857 22.6864 14.7101C22.591 14.7345 22.4917 14.74 22.3942 14.726C22.2967 14.7121 22.2029 14.6791 22.1182 14.6289C22.0334 14.5787 21.9594 14.5124 21.9003 14.4336C21.4482 13.8259 20.8598 13.3329 20.1824 12.9942C19.5051 12.6555 18.7576 12.4806 18.0003 12.4836C17.8528 12.4836 17.7086 12.4401 17.5857 12.3585C17.4628 12.277 17.3667 12.161 17.3093 12.0251C17.2704 11.9329 17.2504 11.8337 17.2504 11.7336C17.2504 11.6334 17.2704 11.5343 17.3093 11.442C17.3667 11.3061 17.4628 11.1902 17.5857 11.1086C17.7086 11.0271 17.8528 10.9836 18.0003 10.9836C18.4211 10.9835 18.8335 10.8655 19.1906 10.6428C19.5476 10.4202 19.8351 10.1018 20.0204 9.72398C20.2056 9.34612 20.2812 8.92389 20.2385 8.50525C20.1958 8.0866 20.0365 7.68832 19.7788 7.35565C19.5211 7.02298 19.1753 6.76924 18.7806 6.62327C18.3859 6.4773 17.9582 6.44494 17.546 6.52986C17.1338 6.61479 16.7538 6.8136 16.4489 7.10371C16.1441 7.39383 15.9267 7.76361 15.8215 8.17107C15.7969 8.26648 15.7537 8.35611 15.6945 8.43484C15.6352 8.51356 15.561 8.57985 15.4761 8.62991C15.3913 8.67996 15.2974 8.71281 15.1998 8.72657C15.1022 8.74034 15.0029 8.73475 14.9075 8.71013C14.8121 8.68551 14.7224 8.64233 14.6437 8.58307C14.565 8.52381 14.4987 8.44962 14.4486 8.36474C14.3986 8.27986 14.3657 8.18595 14.352 8.08838C14.3382 7.99081 14.3438 7.89148 14.3684 7.79607C14.5144 7.23105 14.7903 6.70791 15.1741 6.26827C15.5579 5.82863 16.039 5.48463 16.5791 5.26364C17.1192 5.04265 17.7034 4.95077 18.2853 4.99531C18.8672 5.03985 19.4307 5.21958 19.9309 5.5202C20.431 5.82082 20.8542 6.23403 21.1666 6.72696C21.479 7.21988 21.672 7.77892 21.7303 8.35958C21.7887 8.94023 21.7107 9.52649 21.5026 10.0717C21.2944 10.6169 20.9619 11.106 20.5315 11.5001C21.5514 11.9417 22.4379 12.6424 23.1031 13.5326C23.1622 13.6116 23.2051 13.7015 23.2294 13.7971C23.2537 13.8927 23.2589 13.9922 23.2447 14.0898C23.2305 14.1874 23.1972 14.2813 23.1467 14.366C23.0962 14.4507 23.0294 14.5247 22.9503 14.5836ZM17.899 20.3586C17.9533 20.4439 17.9897 20.5394 18.0062 20.6392C18.0226 20.739 18.0186 20.8411 17.9946 20.9394C17.9705 21.0376 17.9268 21.13 17.8661 21.2109C17.8054 21.2918 17.729 21.3596 17.6414 21.4102C17.5539 21.4609 17.4569 21.4932 17.3565 21.5054C17.2561 21.5176 17.1543 21.5094 17.0571 21.4812C16.96 21.453 16.8695 21.4055 16.7912 21.3415C16.713 21.2774 16.6484 21.1982 16.6015 21.1086C16.1291 20.3086 15.4562 19.6456 14.6493 19.185C13.8424 18.7244 12.9294 18.4822 12.0003 18.4822C11.0712 18.4822 10.1582 18.7244 9.35126 19.185C8.54436 19.6456 7.87149 20.3086 7.39903 21.1086C7.35214 21.1982 7.28761 21.2774 7.20932 21.3415C7.13102 21.4055 7.04058 21.453 6.94343 21.4812C6.84629 21.5094 6.74444 21.5176 6.64403 21.5054C6.54362 21.4932 6.44671 21.4609 6.35914 21.4102C6.27156 21.3596 6.19513 21.2918 6.13444 21.2109C6.07376 21.13 6.03007 21.0376 6.006 20.9394C5.98194 20.8411 5.978 20.739 5.99441 20.6392C6.01083 20.5394 6.04727 20.4439 6.10153 20.3586C6.82865 19.1092 7.93734 18.1261 9.26466 17.5536C8.51778 16.9817 7.96887 16.1902 7.69509 15.2903C7.42132 14.3903 7.43644 13.4272 7.73833 12.5364C8.04022 11.6455 8.6137 10.8716 9.37816 10.3234C10.1426 9.77534 11.0596 9.48056 12.0003 9.48056C12.9409 9.48056 13.8579 9.77534 14.6224 10.3234C15.3869 10.8716 15.9603 11.6455 16.2622 12.5364C16.5641 13.4272 16.5792 14.3903 16.3055 15.2903C16.0317 16.1902 15.4828 16.9817 14.7359 17.5536C16.0632 18.1261 17.1719 19.1092 17.899 20.3586ZM12.0003 16.9836C12.5936 16.9836 13.1736 16.8076 13.667 16.478C14.1603 16.1483 14.5449 15.6798 14.7719 15.1316C14.999 14.5834 15.0584 13.9802 14.9426 13.3983C14.8269 12.8164 14.5412 12.2818 14.1216 11.8622C13.702 11.4427 13.1675 11.157 12.5856 11.0412C12.0036 10.9255 11.4004 10.9849 10.8522 11.2119C10.3041 11.439 9.83552 11.8235 9.50587 12.3169C9.17623 12.8102 9.00028 13.3902 9.00028 13.9836C9.00028 14.7792 9.31635 15.5423 9.87896 16.1049C10.4416 16.6675 11.2046 16.9836 12.0003 16.9836ZM6.75028 11.7336C6.75028 11.5347 6.67126 11.3439 6.53061 11.2032C6.38996 11.0626 6.19919 10.9836 6.00028 10.9836C5.57946 10.9835 5.16709 10.8655 4.81 10.6428C4.45291 10.4202 4.16542 10.1018 3.98019 9.72398C3.79495 9.34612 3.71939 8.92389 3.76209 8.50525C3.80479 8.0866 3.96405 7.68832 4.22176 7.35565C4.47947 7.02298 4.82531 6.76924 5.22 6.62327C5.61469 6.4773 6.0424 6.44494 6.45456 6.52986C6.86672 6.61479 7.2468 6.8136 7.55163 7.10371C7.85646 7.39383 8.07383 7.76361 8.17903 8.17107C8.22876 8.36376 8.353 8.52881 8.52442 8.62991C8.69584 8.731 8.9004 8.75986 9.09309 8.71013C9.28579 8.6604 9.45084 8.53616 9.55193 8.36474C9.65303 8.19332 9.68188 7.98876 9.63216 7.79607C9.48613 7.23105 9.21026 6.70791 8.82648 6.26827C8.4427 5.82863 7.96161 5.48463 7.42149 5.26364C6.88137 5.04265 6.29712 4.95077 5.71524 4.99531C5.13336 5.03985 4.56991 5.21958 4.06971 5.5202C3.56952 5.82082 3.14639 6.23403 2.83399 6.72696C2.52159 7.21988 2.32855 7.77892 2.27022 8.35958C2.21189 8.94023 2.28989 9.52649 2.49801 10.0717C2.70613 10.6169 3.03862 11.106 3.46903 11.5001C2.45023 11.9421 1.5647 12.6428 0.900281 13.5326C0.841125 13.6114 0.798067 13.7011 0.773567 13.7965C0.749066 13.892 0.743603 13.9913 0.757488 14.0888C0.771373 14.1864 0.804335 14.2802 0.854492 14.365C0.90465 14.4498 0.97102 14.5239 1.04981 14.5831C1.12861 14.6423 1.21828 14.6853 1.31371 14.7098C1.40915 14.7343 1.50847 14.7398 1.60602 14.7259C1.70356 14.712 1.79742 14.679 1.88222 14.6289C1.96703 14.5787 2.04112 14.5124 2.10028 14.4336C2.55233 13.8259 3.14073 13.3329 3.81812 12.9942C4.4955 12.6555 5.24295 12.4806 6.00028 12.4836C6.19919 12.4836 6.38996 12.4045 6.53061 12.2639C6.67126 12.1232 6.75028 11.9325 6.75028 11.7336Z" fill="white"/>
</svg>